<?xml version="1.0" ?><svg xmlns="http://www.w3.org/2000/svg" xmlns:xlink="http://www.w3.org/1999/xlink" version="1.1" viewBox="0 0 512 512" style="enable-background:new 0 0 512 512;" xml:space="preserve"><g id="_x32_9_x2C__Survey_x2C__Questionnaire_x2C__Poll_x2C__Feedback_x2C__Data_x2C__Research"><g><g><rect x="111.865" y="66" style="fill:#FFFFFF;" width="300" height="440"/><rect x="76.865" y="31" style="fill:#9DCAFC;" width="300" height="440"/><path style="fill:#FFFFFF;" d="M346.865,391l-39.527,10.333L296.865,441h-240V6h290V391z"/><rect x="96.865" y="241" style="fill:#9DCAFC;" width="50" height="50"/><polygon style="fill:#9DCAFC;" points="146.865,153.5 146.865,196 96.865,196 96.865,146 146.865,146    "/><polygon style="fill:#9DCAFC;" points="146.865,58.5 146.865,101 96.865,101 96.865,51 146.865,51    "/><polygon style="fill:#9DCAFC;" points="394.365,196.79 383.895,171.9 401.575,154.22 426.755,165.25 436.925,189.57      419.245,207.25    "/><path style="fill:#FFFFFF;" d="M450.525,153.68c6.16,6.15,6.16,16.14,0,22.29l-13.6,13.6l-35.35-35.35     c4.599-4.599,9.354-9.354,13.6-13.6c6.15-6.16,16.14-6.16,22.29,0L450.525,153.68z"/><polygon style="fill:#9DCAFC;" points="401.575,189.58 351.505,260.5 267.225,323.92 249.545,306.25 383.895,171.9    "/><polygon style="fill:#9DCAFC;" points="346.865,391 296.865,441 296.865,391    "/><rect x="248.237" y="253.091" transform="matrix(0.7071 -0.7071 0.7071 0.7071 -87.2676 320.4925)" style="fill:#9DCAFC;" width="189.996" height="24.993"/><path style="fill:#9DCAFC;" d="M284.895,323.92c4.89,4.89,4.89,12.8,0,17.68l-53.03,17.68l17.68-53.03     c4.88-4.89,12.79-4.89,17.68,0c4.917,4.917,4.842,12.828,0,17.67C272.105,319.04,280.015,319.04,284.895,323.92z"/><path style="fill:#4269A7;" d="M454.062,150.141l-13.058-13.058c-6.521-6.522-16.335-7.781-24.139-3.796V66c0-2.762-2.238-5-5-5     h-30V31c0-2.762-2.238-5-5-5h-25V6c0-2.762-2.238-5-5-5h-290c-2.762,0-5,2.238-5,5v435c0,2.762,2.238,5,5,5h15v25     c0,2.762,2.238,5,5,5h30v30c0,2.762,2.238,5,5,5h300c2.762,0,5-2.238,5-5V216.705c11.927-11.927,25.596-25.596,37.196-37.196     C462.159,171.412,462.159,158.237,454.062,150.141z M292.534,326.895c-1.769-4.979-5.628-8.838-10.608-10.607l119.645-119.644     l10.607,10.607C381.827,237.602,317.283,302.146,292.534,326.895z M253.858,309.113c2.938-2.227,7.148-2.009,9.828,0.669     c2.924,2.925,2.924,7.683,0,10.607c-1.953,1.952-1.953,5.118,0,7.07c1.951,1.953,5.119,1.953,7.07,0     c4.695-4.692,12.804-1.361,12.804,5.304c0,1.656-0.541,3.227-1.526,4.523l-42.263,14.088L253.858,309.113z M419.249,200.18     l-28.284-28.284l10.606-10.606l28.284,28.284L419.249,200.18z M394.501,189.573L274.848,309.225     c-1.79-5.057-5.677-8.865-10.598-10.615c15.796-15.796,103.573-103.574,119.644-119.645L394.501,189.573z M406.865,71v70.854     c-9.741,9.741-18.286,18.286-25,25V71H406.865z M371.865,36v140.854l-20,20V36H371.865z M61.865,11h280v195.854L262.719,286     h-90.854c-2.762,0-5,2.238-5,5s2.238,5,5,5h80.854l-6.711,6.711c-0.576,0.576-0.999,1.324-1.208,1.954l-17.678,53.033     c-1.3,3.896,2.423,7.627,6.324,6.324l53.033-17.678c0.637-0.211,1.408-0.662,1.954-1.208l53.432-53.432V386h-45     c-2.762,0-5,2.238-5,5v45h-230V11z M334.794,396l-32.929,32.929V396H334.794z M81.865,466v-20h215c1.381,0,2.667-0.595,3.54-1.47     l49.99-49.99c0.828-0.826,1.47-2.118,1.47-3.54V281.705l20-20V466H81.865z M406.865,501h-290v-25h260c2.762,0,5-2.238,5-5     V251.705l25-25V501z M446.991,172.438l-10.064,10.064l-28.285-28.285c1.543-1.543,7.401-7.401,10.064-10.064     c4.199-4.198,11.028-4.196,15.228,0l13.058,13.058C451.188,161.409,451.188,168.24,446.991,172.438z"/><path style="fill:#4269A7;" d="M96.865,106h50c2.762,0,5-2.238,5-5V60.57l6.035-6.035c1.953-1.952,1.953-5.118,0-7.07     c-1.951-1.953-5.119-1.953-7.07,0l-0.235,0.235c-0.916-1.034-2.239-1.7-3.73-1.7h-50c-2.762,0-5,2.238-5,5v50     C91.865,103.762,94.104,106,96.865,106z M101.865,56h40v0.429l-20,19.999l-6.465-6.464c-1.951-1.953-5.119-1.953-7.07,0     c-1.953,1.952-1.953,5.118,0,7.07l10,10c1.951,1.953,5.119,1.953,7.07,0l16.465-16.465V96h-40V56z"/><path style="fill:#4269A7;" d="M171.865,81h85c2.762,0,5-2.238,5-5s-2.238-5-5-5h-85c-2.762,0-5,2.238-5,5S169.104,81,171.865,81     z"/><path style="fill:#4269A7;" d="M171.865,106h140c2.762,0,5-2.238,5-5s-2.238-5-5-5h-140c-2.762,0-5,2.238-5,5     S169.104,106,171.865,106z"/><path style="fill:#4269A7;" d="M96.865,201h50c2.762,0,5-2.238,5-5v-40.43l6.035-6.035c1.953-1.952,1.953-5.118,0-7.07     c-1.951-1.953-5.119-1.953-7.07,0l-0.235,0.235c-0.916-1.034-2.239-1.7-3.73-1.7h-50c-2.762,0-5,2.238-5,5v50     C91.865,198.762,94.104,201,96.865,201z M101.865,151h40v0.429l-20,19.999l-6.465-6.464c-1.951-1.953-5.119-1.953-7.07,0     c-1.953,1.952-1.953,5.118,0,7.07l10,10c1.951,1.953,5.119,1.953,7.07,0l16.465-16.465V191h-40V151z"/><path style="fill:#4269A7;" d="M171.865,176h85c2.762,0,5-2.238,5-5s-2.238-5-5-5h-85c-2.762,0-5,2.238-5,5     S169.104,176,171.865,176z"/><path style="fill:#4269A7;" d="M171.865,201h140c2.762,0,5-2.238,5-5s-2.238-5-5-5h-140c-2.762,0-5,2.238-5,5     S169.104,201,171.865,201z"/><path style="fill:#4269A7;" d="M96.865,296h50c2.762,0,5-2.238,5-5v-50c0-2.762-2.238-5-5-5h-50c-2.762,0-5,2.238-5,5v50     C91.865,293.762,94.104,296,96.865,296z M101.865,246h40v40h-40V246z"/><path style="fill:#4269A7;" d="M171.865,271h85c2.762,0,5-2.238,5-5s-2.238-5-5-5h-85c-2.762,0-5,2.238-5,5     S169.104,271,171.865,271z"/></g></g></g><g id="Layer_1"/></svg>